<svg width="91" height="79" xmlns="http://www.w3.org/2000/svg">

 <g>
  <title>background</title>
  <rect fill="none" id="canvas_background" height="81" width="93" y="-1" x="-1"/>
 </g>
 <g>
  <title>Layer 1</title>
  <g id="svg_1">
   <path id="svg_2" d="m4.906,33.62201c0.372,0.614 0.838,1.085 1.332,1.582c0.303,0.306 0.608,0.613 0.896,0.958c0.115,0.137 0.241,0.273 0.359,0.41c7.697,-6.332 17.32,-10.583 27.162,-11.98c3.623,-0.513 6.939,-0.61 10.124,-0.323c0.006,-0.114 0.018,-0.23 0.023,-0.344c0.18,-4.936 -1.24,-9.492 -3.999,-12.829c-0.425,-0.514 -0.895,-0.983 -1.382,-1.43c-2.745,0.029 -5.505,0.279 -8.206,0.752c-7.335,1.286 -14.115,4.102 -19.625,8.079c-0.008,0.008 -0.015,0.018 -0.023,0.026c-0.033,0.032 -0.073,0.051 -0.111,0.072c-1.58,1.15 -3.06,2.391 -4.41,3.725c-0.514,0.508 -0.979,1.019 -1.416,1.527c-0.688,0.92 -1.758,3.246 -1.984,4.337c-0.144,0.693 -0.165,1.316 -0.063,1.908c0.21,1.227 0.667,2.446 1.323,3.53z" fill="none"/>
   <path id="svg_3" d="m21.374,48.92601c-3.295,-2.059 -6.703,-4.19 -9.781,-6.865c-1.668,-1.451 -3.173,-2.946 -4.508,-4.455c-0.011,-0.011 -0.026,-0.015 -0.036,-0.028c-0.009,-0.011 -0.012,-0.025 -0.02,-0.036c-0.219,-0.248 -0.444,-0.496 -0.653,-0.744c-0.271,-0.323 -0.557,-0.61 -0.841,-0.897c-0.513,-0.517 -1.043,-1.051 -1.476,-1.767c-0.729,-1.205 -1.217,-2.508 -1.451,-3.875c-0.107,-0.623 -0.083,-1.276 0.032,-1.97c-1.028,2.57 -1.367,5.684 -1.014,9.419c0.252,2.658 0.634,5.707 1.981,8.262c1.292,2.449 3.513,4.7 5.493,6.617c2.298,2.22499 4.859,4.171 7.613,5.783c0.232,0.13599 0.512,0.306 0.827,0.49799c1.005,0.61 2.326,1.40301 3.659,2.05l-0.014,-5.081c-0.006,-1.949 0.572,-4.077 1.535,-6.067l-1.346,-0.844z" fill="none"/>
   <path id="svg_4" d="m33.05301,45.71301l41.095,-23.726c0.137,-0.079 0.27299,-0.141 0.409,-0.212l-1.667,-0.968c-1.193,-0.693 -2.812,-0.522 -4.555,0.484l-7.372,4.256c-0.004,0.002 -0.008,0.005 -0.012,0.007l-18.462,10.66c0,0 -0.001,0 -0.001,0.001l-13.48,7.783c-2.084,1.203 -3.946,3.357 -5.2,5.775c-0.011,0.026 -0.014,0.054 -0.03,0.079c-0.007,0.011 -0.018,0.014 -0.026,0.024c-0.989,1.941 -1.584,4.044 -1.578,5.96l0.024,8.407c0.005,1.97301 0.656,3.436 1.832,4.119l1.535,0.892c-0.082,-0.474 -0.132,-0.974 -0.133,-1.508l-0.025,-8.784c-0.015,-4.863 3.416,-10.807 7.646,-13.249z" fill="none"/>
   <path id="svg_5" d="m28.971,60.36201c-0.014,-4.66 3.274,-10.356 7.328,-12.696l39.328,-22.706c1.237,-0.715 3.711,-1.383 5.716,-1.508l-1.92001,-1.116c-0.5,-0.291 -1.077,-0.438 -1.715,-0.438c-0.937,0 -1.997,0.326 -3.067,0.944l-41.09399,23.727c-3.957,2.284 -7.165,7.843 -7.153,12.39l0.025,8.784c0.006,2.07101 0.69,3.606 1.925,4.32401l1.343,0.781c-0.462,-1.198 -0.69,-2.699 -0.694,-4.079l-0.022,-8.407z" fill="none"/>
   <path id="svg_6" d="m24.37,7.34201c-1.355,0.661 -2.66,1.542 -3.811,2.321c-1.418,0.959 -2.58,1.897 -3.555,2.867c-0.772,0.769 -1.403,1.654 -2.04,2.63c4.796,-2.73 10.268,-4.696 16.08,-5.714c0.561,-0.098 1.125,-0.18 1.69,-0.26c0.141,-0.774 0.384,-1.51 0.628,-2.223c0.064,-0.188 0.123,-0.377 0.185,-0.565c-0.863,-0.232 -1.741,-0.38 -2.62,-0.423c-2.23,-0.103 -4.499,0.364 -6.557,1.367z" fill="none"/>
   <path id="svg_7" d="m13.452,16.05501c0.021,-0.022 0.037,-0.041 0.049,-0.055c-0.02,-0.19 0.006,-0.406 0.204,-0.717c0.822,-1.293 1.586,-2.446 2.601,-3.456c1.018,-1.014 2.228,-1.991 3.698,-2.984c1.178,-0.797 2.514,-1.7 3.932,-2.39c2.207,-1.077 4.639,-1.586 7.04,-1.466c1.09,0.053 2.177,0.26 3.241,0.581c0.019,0.001 0.039,0.002 0.059,0.006c0.032,0.006 0.053,0.03 0.081,0.042c1.995,0.625 3.883,1.695 5.502,3.12c0.066,0.036 0.121,0.086 0.165,0.146c0.545,0.494 1.07,1.014 1.542,1.585c2.912,3.523 4.413,8.316 4.225,13.496c-0.01,0.275 -0.035,0.554 -0.054,0.831c0,0.019 0.007,0.036 0.005,0.055c-0.001,0.013 -0.009,0.022 -0.011,0.035c-0.229,3.114 -1.047,6.376 -2.449,9.731l16.896,-9.755c-0.581,-4.671 -1.91,-8.916 -3.883,-12.548c-0.002,-0.003 -0.003,-0.006 -0.005,-0.009c-1.767,-3.25 -4.044,-6.013 -6.775,-8.136c-1.414,-1.098 -2.631,-1.755 -3.83,-2.069c-1.636,-0.427 -8.228,-0.388 -9.67,-0.163c-1.173,0.181 -2.386,0.45 -3.935,0.874c-2.462,0.673 -5.334,1.541 -7.957,2.866c-2.452,1.239 -4.646,2.758 -6.519,4.516c-1.918,1.8 -3.421,3.803 -4.467,5.952c-0.026,0.052 -0.056,0.108 -0.082,0.161c0.13,-0.083 0.263,-0.161 0.393,-0.243c0.002,-0.001 0.003,-0.004 0.004,-0.006z" fill="none"/>
   <path id="svg_8" d="m33.764,9.05201c1.493,-0.18 2.995,-0.294 4.497,-0.343c-1.163,-0.863 -2.437,-1.542 -3.769,-2.008c-0.064,0.194 -0.128,0.388 -0.194,0.581c-0.206,0.603 -0.402,1.181 -0.534,1.77z" fill="none"/>
   <path id="svg_9" d="m34.795,25.57201c-9.655,1.37 -19.095,5.537 -26.649,11.744c1.225,1.352 2.595,2.693 4.097,3.999c3.019,2.624 6.393,4.733 9.656,6.772l1.279,0.802c1.337,-2.41 3.23,-4.533 5.336,-5.748l13.324,-7.693c1.612,-3.522 2.579,-6.944 2.878,-10.193c-3.119,-0.282 -6.365,-0.187 -9.921,0.317z" fill="none"/>
   <path id="svg_10" d="m33.646,73.617c-0.046,-0.366 -0.078,-0.743 -0.079,-1.142l-0.025,-8.785c-0.014,-4.861 3.416,-10.804 7.647,-13.247l41.09499,-23.726c0.28201,-0.163 0.562,-0.302 0.839,-0.428c0.092,-0.042 0.183,-0.076 0.275,-0.114c0.188,-0.078 0.375,-0.148 0.56,-0.209c0.101,-0.033 0.201,-0.063 0.301,-0.091c0.183,-0.051 0.364,-0.091 0.544,-0.125c0.089,-0.017 0.179,-0.037 0.268,-0.049c0.035,-0.005 0.072,-0.015 0.107,-0.02l-1.787,-1.039c-0.001,-0.001 -0.003,-0.001 -0.004,-0.001c-1.07,-0.625 -5.348,0.071 -7.264,1.175l-39.329,22.706c-3.781,2.183 -6.846,7.494 -6.834,11.838l0.024,8.407c0.006,2.116 0.569,4.584 1.634,5.202c0,0 0,0 0,0l2.477,1.43999c-0.2,-0.48299 -0.338,-1.02499 -0.425,-1.60799c-0.008,-0.061 -0.016,-0.123 -0.024,-0.18401z" fill="none"/>
   <path id="svg_11" d="m87.421,27.00101c-0.05199,-0.027 -0.105,-0.051 -0.159,-0.074c-0.155,-0.069 -0.318,-0.124 -0.487,-0.168c-0.065,-0.017 -0.126,-0.039 -0.193,-0.052c-0.205,-0.041 -0.42,-0.062 -0.642,-0.068c-0.133,-0.003 -0.27,0.006 -0.40701,0.016c-0.076,0.006 -0.152,0.01 -0.23,0.019c-0.136,0.017 -0.275,0.042 -0.414,0.07c-0.098,0.02 -0.197,0.044 -0.296,0.07c-0.124,0.032 -0.249,0.067 -0.375,0.109c-0.136,0.045 -0.274,0.099 -0.413,0.155c-0.097,0.039 -0.194,0.074 -0.293,0.119c-0.243,0.111 -0.488,0.233 -0.734,0.375l-41.095,23.726c-3.957,2.285 -7.165,7.843 -7.152,12.389l0.025,8.785c0.001,0.331 0.025,0.643 0.061,0.945c0.008,0.071 0.018,0.14 0.028,0.208c0.041,0.28 0.093,0.55 0.163,0.802c0.003,0.011 0.005,0.02399 0.008,0.035c0.079,0.276 0.178,0.531 0.291,0.77c0.015,0.031 0.031,0.06 0.046,0.09c0.106,0.21 0.224,0.405 0.356,0.583c0.017,0.023 0.032,0.047 0.049,0.069c0.148,0.19 0.31,0.361 0.487,0.51c0.024,0.02 0.05,0.036 0.074,0.055c0.564,0.448 1.262,0.696 2.075,0.696c0.936,0 1.997,-0.327 3.067,-0.945l41.095,-23.726c3.957,-2.285 7.167,-7.842 7.154,-12.389l-0.025,-8.784c-0.006,-2.166 -0.769,-3.719 -2.064,-4.39zm-3.213,20.45c-0.031,0.073 -0.053,0.146 -0.087,0.218c-0.026,0.053 -0.05901,0.102 -0.08701,0.155c-0.45699,0.882 -1.156,1.692 -1.93999,2.201l-0.071,0.041c-0.00401,0.003 -0.008,0.007 -0.012,0.009l-9.519,5.496l-0.979,0.566l-27.457,15.851c-0.154,0.09 -0.314,0.186 -0.476,0.285c-0.175,0.106 -0.354,0.214 -0.533,0.318c-0.245,0.141 -0.509,0.279 -0.779,0.396c-0.366,0.16 -0.741,0.278 -1.103,0.278c-0.066,0 -0.131,-0.004 -0.195,-0.012c-0.487,-0.058 -0.877,-0.293 -1.125,-0.678c-0.191,-0.297 -0.281,-0.64899 -0.303,-1.018c-0.038,-0.615 0.11,-1.278 0.28,-1.812l1.43,-4.496c0.052,-0.164 0.109,-0.333 0.166,-0.502c0.104,-0.31001 0.211,-0.623 0.288,-0.924c0.136,-0.539 0.035,-0.777 -0.142,-1.123l-1.483,-2.896c-0.477,-0.925 -0.977,-1.896 -0.201,-3.579c0.612,-1.324 1.567,-2.092 2.259,-2.502c0.965,-0.572 1.929,-1.132 2.894,-1.689c0.975,-0.563 1.949,-1.121 2.925,-1.68c0.951,-0.544 1.903,-1.089 2.853,-1.637l29.851,-17.248c0.269,-0.156 0.53699,-0.307 0.805,-0.452c0.476,-0.257 0.957,-0.392 1.394,-0.392c0.803,0 1.668,0.485 1.692,1.845c0.014,0.837 -0.372,1.937 -0.714,2.906c-0.099,0.284 -0.195,0.556 -0.27399,0.805c-0.136,0.427 -0.283,0.862 -0.432,1.3c-0.288,0.851 -0.58601,1.732 -0.797,2.559c-0.198,0.78 0.186,1.402 0.557,2.004c0.113,0.183 0.218,0.354 0.302,0.519c0.126,0.244 0.255,0.486 0.384,0.728c0.27399,0.512 0.549,1.026 0.791,1.57c0.34299,0.777 0.221,1.705 -0.162,2.59z" fill="none"/>
   <path id="svg_12" d="m67.84,20.43501c0.49001,-0.284 0.97401,-0.505 1.44901,-0.673c-0.509,-0.353 -1.02,-0.704 -1.526,-1.063c-1.332,-0.947 -2.71,-1.926 -4.138,-2.78c-1.833,-1.096 -3.797,-2.056 -5.843,-2.879c1.637,3.351 2.764,7.155 3.32,11.284l6.738,-3.889z" fill="none"/>
   <path id="svg_13" d="m82.707,43.75801c-0.132,-0.247 -0.265,-0.494 -0.393,-0.744c-0.07201,-0.143 -0.165,-0.293 -0.263,-0.45c-0.361,-0.584 -0.83801,-1.357 -0.749,-2.335c0.013,-0.14 0.03699,-0.284 0.075,-0.432c0.219,-0.865 0.524,-1.765 0.818,-2.634c0.147,-0.431 0.292,-0.861 0.426,-1.283c0.082,-0.257 0.182,-0.539 0.285,-0.833c0.313,-0.891 0.668,-1.901 0.65701,-2.56c-0.00201,-0.098 -0.009,-0.185 -0.022,-0.262c-0.089,-0.541 -0.423,-0.61 -0.681,-0.61c-0.269,0 -0.597,0.097 -0.923,0.272c-0.259,0.14 -0.52,0.288 -0.78,0.438l-14.35799,8.301l-15.493,8.946c-0.952,0.55 -1.905,1.095 -2.857,1.64c-0.975,0.558 -1.949,1.117 -2.923,1.678c-0.961,0.555 -1.923,1.116 -2.884,1.684c-0.572,0.33801 -1.36,0.972 -1.866,2.065c-0.573,1.245 -0.255,1.862 0.148,2.644l1.519,2.965c0.24,0.469 0.436,0.961 0.219,1.817c-0.082,0.326 -0.196,0.66399 -0.309,0.999c-0.055,0.16299 -0.11,0.325 -0.16,0.48399l-1.43,4.496c-0.284,0.895 -0.317,1.641 -0.088,1.995c0.029,0.045 0.069,0.095 0.131,0.137c0.002,0.002 0.005,0.003 0.007,0.004c0.062,0.041 0.147,0.073 0.263,0.088c0.003,0 0.005,0.002 0.009,0.002l0.005,0c0.492,-0.02299 1.026,-0.285 1.461,-0.53699c0.173,-0.099 0.346,-0.204 0.515,-0.307c0.169,-0.10201 0.334,-0.202 0.495,-0.29501l37.946,-21.91c0.71799,-0.468 1.321,-1.188 1.689,-1.924c0.012,-0.024 0.019,-0.048 0.031,-0.071c0.078,-0.164 0.149,-0.327 0.203,-0.489c0.003,-0.009 0.004,-0.019 0.007,-0.028c0.056,-0.174 0.09901,-0.346 0.122,-0.512c0.001,-0.009 0,-0.017 0.001,-0.026c0.022,-0.163 0.028,-0.321 0.015,-0.469c-0.015,-0.156 -0.049,-0.305 -0.10899,-0.441c-0.232,-0.52 -0.496,-1.012 -0.759,-1.503zm-5.853,1.385l-29.16599,16.838c-0.24,0.139 -0.48,0.209 -0.714,0.209c-0.633,0 -1.076,-0.507 -1.078,-1.233c-0.003,-0.834 0.564,-1.817 1.29,-2.236l29.16599,-16.839c0.889,-0.515 1.79,0.03 1.792,1.026c0.00301,0.833 -0.564,1.816 -1.29,2.235z" fill="none"/>
   <path id="svg_14" d="m77.066,42.66101c-0.026,0 -0.1,0.008 -0.219,0.076l-29.166,16.839c-0.425,0.246 -0.797,0.89001 -0.796,1.37801c0,0.00999 0.002,0.24599 0.089,0.24599c0.026,0 0.1,-0.007 0.219,-0.075l29.166,-16.838c0.418,-0.241 0.797,-0.898 0.796,-1.377c0,-0.011 -0.002,-0.249 -0.089,-0.249z" fill="none"/>
   <path id="svg_15" d="m83.579,43.29101c-0.12901,-0.242 -0.259,-0.484 -0.384,-0.728c-0.084,-0.164 -0.189,-0.336 -0.302,-0.519c-0.37099,-0.602 -0.755,-1.224 -0.557,-2.004c0.211,-0.828 0.509,-1.709 0.797,-2.559c0.14899,-0.438 0.296,-0.873 0.432,-1.3c0.07899,-0.248 0.175,-0.521 0.27399,-0.805c0.342,-0.97 0.728,-2.069 0.714,-2.906c-0.024,-1.36 -0.89,-1.845 -1.692,-1.845c-0.437,0 -0.918,0.135 -1.394,0.392c-0.26801,0.145 -0.536,0.297 -0.805,0.452l-29.852,17.248c-0.95,0.549 -1.902,1.093 -2.853,1.637c-0.975,0.558 -1.95,1.117 -2.925,1.68c-0.965,0.557 -1.929,1.117 -2.894,1.689c-0.693,0.41 -1.647,1.177 -2.259,2.502c-0.776,1.683 -0.275,2.654 0.201,3.579l1.483,2.896c0.177,0.346 0.278,0.584 0.142,1.123c-0.077,0.301 -0.184,0.614 -0.288,0.924c-0.057,0.169 -0.114,0.338 -0.166,0.502l-1.43,4.496c-0.17,0.534 -0.318,1.196 -0.28,1.812c0.022,0.369 0.112,0.721 0.303,1.018c0.249,0.385 0.638,0.62 1.125,0.678c0.064,0.008 0.129,0.012 0.195,0.012c0.362,0 0.737,-0.118 1.103,-0.278c0.269,-0.117 0.533,-0.255 0.779,-0.396c0.18,-0.103 0.358,-0.21201 0.533,-0.318c0.162,-0.099 0.323,-0.195 0.476,-0.285l27.456,-15.851l0.979,-0.566l9.519,-5.496c0.004,-0.003 0.008,-0.007 0.012,-0.009l0.071,-0.041c0.784,-0.509 1.48299,-1.319 1.93999,-2.201c0.028,-0.052 0.061,-0.102 0.08701,-0.155c0.034,-0.072 0.057,-0.145 0.087,-0.218c0.384,-0.885 0.505,-1.813 0.16199,-2.589c-0.241,-0.545 -0.515,-1.059 -0.78899,-1.571zm-0.019,2.881c-0.001,0.009 0,0.017 -0.001,0.026c-0.02399,0.165 -0.067,0.338 -0.122,0.512c-0.003,0.009 -0.004,0.019 -0.007,0.028c-0.053,0.162 -0.124,0.326 -0.203,0.489c-0.01099,0.024 -0.019,0.048 -0.031,0.071c-0.368,0.736 -0.971,1.456 -1.689,1.924l-37.946,21.91c-0.16,0.09299 -0.325,0.19199 -0.495,0.295c-0.169,0.103 -0.342,0.208 -0.515,0.307c-0.435,0.252 -0.969,0.514 -1.461,0.537l-0.005,0c-0.003,0 -0.005,-0.00201 -0.009,-0.00201c-0.117,-0.015 -0.202,-0.048 -0.263,-0.088c-0.002,-0.002 -0.005,-0.003 -0.007,-0.004c-0.061,-0.042 -0.102,-0.092 -0.131,-0.137c-0.229,-0.354 -0.196,-1.1 0.088,-1.995l1.43,-4.49599c0.05,-0.159 0.105,-0.32101 0.16,-0.484c0.113,-0.335 0.227,-0.672 0.309,-0.999c0.216,-0.856 0.02,-1.347 -0.219,-1.817l-1.519,-2.965c-0.403,-0.782 -0.721,-1.39899 -0.148,-2.644c0.506,-1.093 1.294,-1.727 1.866,-2.065c0.961,-0.569 1.923,-1.129 2.884,-1.684c0.974,-0.561 1.947,-1.119 2.921,-1.677c0.952,-0.545 1.905,-1.09 2.857,-1.64l15.49299,-8.946l14.358,-8.301c0.261,-0.151 0.522,-0.298 0.78,-0.438c0.326,-0.176 0.654,-0.272 0.923,-0.272c0.259,0 0.59299,0.069 0.681,0.61c0.013,0.077 0.02,0.164 0.022,0.262c0.012,0.66 -0.34399,1.669 -0.657,2.56c-0.103,0.294 -0.203,0.576 -0.285,0.833c-0.134,0.422 -0.27901,0.852 -0.426,1.283c-0.294,0.869 -0.599,1.768 -0.818,2.634c-0.038,0.148 -0.062,0.292 -0.075,0.432c-0.089,0.979 0.388,1.751 0.749,2.335c0.098,0.157 0.18999,0.307 0.26299,0.45c0.12801,0.25 0.261,0.496 0.39301,0.744c0.264,0.492 0.527,0.983 0.759,1.505c0.06001,0.135 0.094,0.284 0.109,0.441c0.015,0.145 0.008,0.303 -0.013,0.466z"/>
   <path id="svg_16" d="m76.352,41.88101l-29.16499,16.839c-0.726,0.419 -1.293,1.401 -1.29,2.236c0.002,0.726 0.445,1.233 1.078,1.233c0.234,0 0.474,-0.07 0.714,-0.209l29.166,-16.83801c0.726,-0.419 1.293,-1.401 1.28999,-2.236c-0.003,-0.995 -0.904,-1.54 -1.793,-1.025zm0.007,2.406l-29.165,16.838c-0.119,0.069 -0.193,0.075 -0.219,0.075c-0.087,0 -0.089,-0.237 -0.089,-0.24599c-0.001,-0.48901 0.371,-1.132 0.796,-1.37801l29.166,-16.838c0.119,-0.069 0.193,-0.076 0.219,-0.076c0.087,0 0.089,0.238 0.089,0.248c0,0.479 -0.379,1.135 -0.797,1.377z"/>
   <path id="svg_17" d="m90.475,31.38801c-0.007,-2.392 -0.876,-4.182 -2.31499,-5.086c-0.03201,-0.033 -0.062,-0.067 -0.103,-0.092l-0.001,0l-8.135,-4.729c-1.179,-0.684 -2.66399,-0.745 -4.243,-0.199l-2.291,-1.331c-0.822,-0.477 -1.78,-0.634 -2.811,-0.498c-0.753,-0.509 -1.49599,-1.033 -2.237,-1.561c-1.348,-0.957 -2.743,-1.948 -4.203,-2.821c-2.194,-1.312 -4.564,-2.442 -7.043,-3.366c-1.822,-3.316 -4.165,-6.14 -6.969,-8.319c-1.523,-1.183 -2.854,-1.897 -4.186,-2.245c-1.814,-0.475 -8.496,-0.429 -10.071,-0.184c-1.211,0.186 -2.458,0.464 -4.045,0.897c-2.51,0.687 -5.441,1.572 -8.143,2.937c-2.536,1.282 -4.807,2.855 -6.75,4.679c-2.006,1.881 -3.58,3.981 -4.68,6.24c-0.341,0.702 -0.767,1.485 -1.321,2.047c-1.64,1.19 -3.175,2.476 -4.575,3.86c-0.504,0.498 -0.966,1 -1.401,1.5c-0.01,0.011 -0.024,0.017 -0.034,0.029c-0.011,0.014 -0.024,0.035 -0.035,0.05c-0.074,0.086 -0.155,0.172 -0.227,0.257c-0.044,0.023 -0.086,0.054 -0.123,0.092c-3.212,3.308 -4.485,7.971 -3.89,14.255c0.26,2.753 0.659,5.917 2.09,8.631c1.36,2.578 3.645,4.896 5.68,6.866c2.354,2.279 4.978,4.274 7.801,5.926c0.228,0.133 0.503,0.3 0.813,0.49c1.13,0.686 2.653,1.604 4.176,2.302l0.006,2.229c0.007,2.34 0.832,4.106 2.324,4.973l2.416,1.404c0.408,1.012 1.044,1.804 1.901,2.30199l3.273,1.902l0,0l0,0l4.863,2.826c0.023,0.014 0.05,0.011 0.074,0.02c0.622,0.347 1.333,0.552 2.136,0.552c1.126,0 2.324,-0.363 3.562,-1.078l41.09499,-23.726c4.23,-2.442 7.661,-8.384 7.649,-13.247l-0.027,-8.784zm-26.849,-15.468c1.428,0.854 2.806,1.833 4.138,2.78c0.506,0.359 1.016,0.71 1.526,1.063c-0.475,0.168 -0.959,0.389 -1.449,0.673l-6.737,3.89c-0.55499,-4.13 -1.68299,-7.933 -3.32,-11.284c2.045,0.822 4.009,1.782 5.842,2.878zm-50.489,0.223c1.046,-2.15 2.549,-4.152 4.467,-5.952c1.874,-1.758 4.068,-3.277 6.519,-4.516c2.623,-1.325 5.495,-2.192 7.957,-2.866c1.549,-0.424 2.763,-0.693 3.935,-0.874c1.442,-0.225 8.034,-0.264 9.67,0.163c1.199,0.314 2.416,0.971 3.83,2.069c2.731,2.122 5.008,4.885 6.775,8.136c0.002,0.003 0.003,0.006 0.005,0.009c1.973,3.632 3.301,7.877 3.883,12.548l-16.896,9.755c1.402,-3.354 2.22,-6.616 2.449,-9.731c0.002,-0.012 0.01,-0.022 0.011,-0.035c0.002,-0.019 -0.005,-0.036 -0.005,-0.055c0.019,-0.277 0.044,-0.556 0.054,-0.831c0.188,-5.18 -1.313,-9.972 -4.225,-13.496c-0.473,-0.572 -0.997,-1.092 -1.542,-1.585c-0.044,-0.061 -0.098,-0.111 -0.165,-0.146c-1.62,-1.426 -3.508,-2.496 -5.502,-3.12c-0.029,-0.012 -0.05,-0.035 -0.081,-0.042c-0.02,-0.004 -0.04,-0.004 -0.059,-0.006c-1.064,-0.321 -2.151,-0.528 -3.241,-0.581c-2.4,-0.12 -4.833,0.389 -7.04,1.466c-1.418,0.691 -2.754,1.594 -3.932,2.39c-1.47,0.994 -2.679,1.97 -3.698,2.984c-1.016,1.01 -1.779,2.163 -2.601,3.456c-0.198,0.311 -0.224,0.526 -0.204,0.717c-0.012,0.014 -0.028,0.033 -0.049,0.055c-0.002,0.002 -0.002,0.005 -0.004,0.007c-0.131,0.081 -0.264,0.16 -0.393,0.243c0.026,-0.054 0.056,-0.109 0.082,-0.162zm28.7,19.306l-13.324,7.693c-2.106,1.215 -3.999,3.338 -5.336,5.748l-1.279,-0.802c-3.263,-2.04 -6.637,-4.148 -9.656,-6.772c-1.501,-1.306 -2.871,-2.647 -4.097,-3.999c7.554,-6.207 16.994,-10.374 26.649,-11.744c3.556,-0.503 6.803,-0.599 9.92,-0.316c-0.298,3.248 -1.265,6.67 -2.877,10.192zm-3.576,-26.74c-1.502,0.049 -3.004,0.163 -4.497,0.343c0.132,-0.589 0.329,-1.167 0.534,-1.77c0.066,-0.194 0.13,-0.387 0.194,-0.581c1.332,0.466 2.606,1.144 3.769,2.008zm-4.714,-2.312c-0.062,0.188 -0.121,0.378 -0.185,0.565c-0.243,0.713 -0.487,1.45 -0.628,2.223c-0.565,0.08 -1.13,0.162 -1.69,0.26c-5.812,1.018 -11.284,2.984 -16.08,5.714c0.637,-0.976 1.268,-1.861 2.04,-2.63c0.975,-0.97 2.137,-1.908 3.555,-2.867c1.151,-0.778 2.456,-1.66 3.811,-2.321c2.058,-1.003 4.327,-1.47 6.558,-1.368c0.878,0.044 1.756,0.192 2.619,0.424zm-29.901,21.787c0.227,-1.091 1.297,-3.417 1.984,-4.337c0.437,-0.508 0.902,-1.019 1.416,-1.527c1.35,-1.334 2.83,-2.575 4.41,-3.725c0.038,-0.021 0.078,-0.04 0.111,-0.072c0.008,-0.008 0.015,-0.018 0.023,-0.026c5.51,-3.977 12.29,-6.793 19.625,-8.079c2.701,-0.474 5.46,-0.724 8.206,-0.752c0.488,0.447 0.958,0.916 1.382,1.43c2.758,3.337 4.178,7.893 3.999,12.829c-0.004,0.114 -0.017,0.23 -0.023,0.344c-3.185,-0.288 -6.501,-0.19 -10.124,0.323c-9.843,1.397 -19.466,5.648 -27.162,11.98c-0.118,-0.137 -0.245,-0.273 -0.359,-0.41c-0.289,-0.345 -0.594,-0.652 -0.896,-0.958c-0.494,-0.497 -0.96,-0.968 -1.332,-1.582c-0.655,-1.084 -1.113,-2.304 -1.323,-3.53c-0.102,-0.591 -0.081,-1.215 0.063,-1.908zm17.538,27.653l0.014,5.081c-1.333,-0.647 -2.654,-1.44 -3.659,-2.05c-0.315,-0.19199 -0.595,-0.362 -0.827,-0.49799c-2.754,-1.613 -5.315,-3.55801 -7.613,-5.783c-1.98,-1.917 -4.201,-4.168 -5.493,-6.617c-1.347,-2.555 -1.729,-5.604 -1.981,-8.262c-0.353,-3.735 -0.014,-6.849 1.014,-9.419c-0.114,0.694 -0.139,1.348 -0.032,1.97c0.234,1.367 0.722,2.67 1.451,3.875c0.433,0.716 0.963,1.25 1.476,1.767c0.284,0.287 0.57,0.575 0.841,0.897c0.209,0.249 0.434,0.496 0.653,0.744c0.008,0.011 0.01,0.025 0.02,0.036c0.01,0.012 0.025,0.017 0.036,0.028c1.335,1.508 2.84,3.004 4.508,4.455c3.078,2.675 6.486,4.806 9.781,6.865l1.346,0.844c-0.963,1.99 -1.54,4.118 -1.535,6.067zm4.247,11.908c0.002,0.535 0.051,1.035 0.133,1.508l-1.535,-0.892c-1.175,-0.683 -1.826,-2.146 -1.832,-4.119l-0.024,-8.407c-0.006,-1.916 0.589,-4.02 1.578,-5.96c0.007,-0.01 0.019,-0.014 0.026,-0.024c0.016,-0.025 0.019,-0.053 0.03,-0.079c1.254,-2.418 3.116,-4.572 5.2,-5.775l13.48,-7.783c0,0 0.001,0 0.001,-0.001l18.462,-10.659c0.00401,-0.002 0.008,-0.004 0.012,-0.007l7.372,-4.256c1.743,-1.005 3.362,-1.177 4.555,-0.484l1.667,0.968c-0.136,0.07 -0.272,0.133 -0.409,0.212l-41.094,23.726c-4.23,2.442 -7.661,8.385 -7.647,13.247l0.025,8.785zm2.914,4.322c-1.235,-0.718 -1.92,-2.253 -1.925,-4.32401l-0.025,-8.784c-0.013,-4.547 3.196,-10.106 7.153,-12.39l41.09499,-23.726c1.069,-0.617 2.13,-0.944 3.067,-0.944c0.638,0 1.215,0.147 1.715,0.438l1.92,1.116c-2.005,0.125 -4.479,0.792 -5.716,1.508l-39.32999,22.705c-4.055,2.34 -7.342,8.036 -7.328,12.696l0.024,8.407c0.004,1.37901 0.231,2.881 0.694,4.079l-1.344,-0.781zm3.273,1.903c0,-0.001 0,-0.001 0,0c-1.065,-0.618 -1.629,-3.086 -1.635,-5.202l-0.023,-8.408c-0.013,-4.344 3.053,-9.656 6.834,-11.838l39.328,-22.706c1.916,-1.105 6.194,-1.8 7.264,-1.175c0.001,0.001 0.003,0.001 0.004,0.001l1.787,1.039c-0.035,0.004 -0.072,0.015 -0.107,0.02c-0.089,0.012 -0.179,0.032 -0.268,0.049c-0.18,0.034 -0.361,0.074 -0.544,0.125c-0.10001,0.028 -0.2,0.058 -0.301,0.091c-0.185,0.06 -0.372,0.131 -0.56,0.209c-0.092,0.038 -0.18201,0.072 -0.275,0.114c-0.278,0.126 -0.557,0.266 -0.839,0.428l-41.09399,23.725c-4.23,2.443 -7.661,8.385 -7.647,13.247l0.025,8.785c0.001,0.4 0.033,0.777 0.079,1.142c0.008,0.062 0.015,0.124 0.025,0.18501c0.087,0.583 0.225,1.125 0.425,1.60799l-2.478,-1.439zm50.739,-21.407l-41.095,23.726c-1.07,0.617 -2.131,0.945 -3.067,0.945c-0.813,0 -1.511,-0.247 -2.075,-0.696c-0.024,-0.019 -0.05,-0.035 -0.074,-0.055c-0.177,-0.149 -0.34,-0.32 -0.487,-0.51c-0.017,-0.022 -0.032,-0.047 -0.049,-0.069c-0.132,-0.178 -0.25,-0.373 -0.356,-0.583c-0.015,-0.03 -0.032,-0.059 -0.046,-0.09c-0.113,-0.23901 -0.212,-0.494 -0.291,-0.77c-0.003,-0.011 -0.005,-0.024 -0.008,-0.035c-0.071,-0.251 -0.122,-0.522 -0.163,-0.802c-0.01,-0.069 -0.02,-0.138 -0.028,-0.208c-0.035,-0.302 -0.06,-0.614 -0.061,-0.945l-0.025,-8.785c-0.013,-4.546 3.195,-10.104 7.152,-12.389l41.095,-23.726c0.246,-0.142 0.491,-0.264 0.734,-0.375c0.098,-0.044 0.195,-0.08 0.293,-0.119c0.138,-0.056 0.276,-0.11 0.413,-0.155c0.126,-0.042 0.251,-0.077 0.375,-0.109c0.1,-0.026 0.198,-0.05 0.296,-0.07c0.14,-0.029 0.278,-0.054 0.414,-0.07c0.078,-0.01 0.153,-0.014 0.23,-0.019c0.138,-0.01 0.275,-0.019 0.40701,-0.016c0.222,0.005 0.438,0.026 0.642,0.068c0.066,0.013 0.128,0.035 0.193,0.052c0.169,0.045 0.332,0.099 0.487,0.168c0.054,0.024 0.107,0.048 0.159,0.074c1.29501,0.671 2.05901,2.224 2.065,4.389l0.025,8.784c0.011,4.549 -3.198,10.105 -7.155,12.39z"/>
  </g>
 </g>
</svg>